<?xml version="1.0" encoding="UTF-8"?>
<svg width="946px" height="874px" viewBox="0 0 946 874" version="1.1" xmlns="http://www.w3.org/2000/svg" xmlns:xlink="http://www.w3.org/1999/xlink">
    <!-- Generator: Sketch 52.5 (67469) - http://www.bohemiancoding.com/sketch -->
    <title>Untitled</title>
    <desc>Created with Sketch.</desc>
    <defs>
        <radialGradient cx="0%" cy="54.652%" fx="0%" fy="54.652%" r="71.688929%" gradientTransform="translate(0.000000,0.546520),scale(0.924313,1.000000),translate(-0.000000,-0.546520)" id="radialGradient-1">
            <stop stop-color="#FFB900" offset="0%"></stop>
            <stop stop-color="#F95D8F" offset="60%"></stop>
            <stop stop-color="#F95353" offset="99.91%"></stop>
        </radialGradient>
    </defs>
    <g id="Page-1" stroke="none" stroke-width="1" fill="none" fill-rule="evenodd">
        <g id="Asana" fill="url(#radialGradient-1)" fill-rule="nonzero">
            <path d="M739.830078,462.480469 C626.294922,462.480469 534.273437,554.501953 534.273437,668.017578 C534.273437,781.542969 626.294922,873.583984 739.830078,873.583984 C853.345703,873.583984 945.367187,781.542969 945.367187,668.017578 C945.367187,554.501953 853.345703,462.480469 739.830078,462.480469 Z M205.796875,462.490234 C92.28125,462.5 0.25,554.501953 0.25,668.027344 C0.25,781.542969 92.28125,873.574219 205.796875,873.574219 C319.322266,873.574219 411.353516,781.542969 411.353516,668.027344 C411.353516,554.501953 319.322266,462.490234 205.787109,462.490234 L205.796875,462.490234 Z M678.355469,205.546875 C678.355469,319.0625 586.333984,411.113281 472.818359,411.113281 C359.283203,411.113281 267.261719,319.0625 267.261719,205.546875 C267.261719,92.03125 359.283203,0 472.818359,0 C586.333984,0 678.345703,92.03125 678.345703,205.546875 L678.355469,205.546875 Z" id="Shape"></path>
        </g>
    </g>
</svg>